<svg width="115" height="49" viewBox="0 0 115 49" fill="none" xmlns="http://www.w3.org/2000/svg">
<path d="M20.8766 8.51231V11.8031C19.6541 11.4891 18.4031 11.3016 17.143 11.2435C15.5052 11.1904 13.8737 11.4737 12.3475 12.0762C15.2103 15.6401 16.9056 19.4571 16.2525 24.3666C15.8568 27.2777 11.3976 39.0218 11.081 39.7346C8.96357 44.3976 10.4214 45.0305 11.8198 45.1171C12.4322 45.101 13.0214 44.8774 13.4927 44.4823C13.9641 44.0872 14.2903 43.5436 14.4188 42.9388C14.9927 44.2178 15.738 47.9482 11.7077 48.3812C9.42532 48.6277 6.19971 47.775 6.27227 43.9247C6.27227 43.8514 6.47016 32.9799 6.47676 31.4144C6.47676 23.0743 0.909434 17.3521 0.493864 12.4293C0.361937 10.9038 -1.35971 5.56129 8.62057 0.651794C8.81846 0.651794 10.428 7.39985 17.7961 8.25918L20.8766 8.51231Z" fill="#FF8210"/>
<path d="M29.9861 44.9507L29.6761 45.0973C29.5529 45.1506 29.4078 45.2039 29.2407 45.2572C29.0704 45.3141 28.8963 45.3586 28.7196 45.3904C28.5236 45.4252 28.325 45.443 28.1259 45.4437C27.6873 45.4529 27.258 45.3147 26.9056 45.0507C26.7306 44.9033 26.5931 44.7157 26.5048 44.5036C26.4164 44.2914 26.3797 44.061 26.3977 43.8316V38.6423H25.3555V37.6164H26.3977V35.0451H27.684V37.6164H29.399V38.6423H27.684V43.4119C27.6827 43.5293 27.7068 43.6456 27.7547 43.7526C27.8026 43.8596 27.873 43.9548 27.961 44.0314C28.13 44.1601 28.3366 44.228 28.5481 44.2246C28.7739 44.2245 28.9977 44.1817 29.2078 44.0981C29.3591 44.0463 29.5049 43.9793 29.6431 43.8982L29.9861 44.9507Z" fill="#414042"/>
<path d="M34.5639 45.4836C34.0224 45.4925 33.4852 45.3859 32.9874 45.1706C32.5224 44.9693 32.1027 44.6747 31.7539 44.3046C31.4097 43.9334 31.1387 43.4993 30.9557 43.0256C30.7648 42.5333 30.6686 42.0088 30.672 41.4801C30.6673 40.9535 30.7636 40.4309 30.9557 39.9413C31.1406 39.4689 31.4138 39.037 31.7605 38.669C32.3214 38.0948 33.0412 37.7055 33.8252 37.5521C34.6093 37.3988 35.421 37.4885 36.1536 37.8097C36.609 38.0143 37.0195 38.3088 37.3608 38.6756C37.6992 39.0387 37.9616 39.4669 38.1325 39.9347C38.311 40.4092 38.4027 40.9125 38.403 41.4202C38.403 41.5267 38.403 41.6267 38.403 41.7133C38.403 41.7999 38.403 41.8731 38.403 41.9198H32.0573C32.0832 42.2836 32.1725 42.6399 32.3211 42.9723C32.46 43.2773 32.6548 43.553 32.8951 43.785C33.126 44.0112 33.3966 44.1919 33.6932 44.3179C34.2092 44.5385 34.785 44.5714 35.3225 44.4111C35.5516 44.3537 35.773 44.2688 35.9821 44.158C36.1719 44.0476 36.347 43.9133 36.5032 43.7583C36.6496 43.604 36.766 43.4232 36.8463 43.2254L37.961 43.5318C37.8302 43.8204 37.6543 44.0858 37.4399 44.3179C37.2132 44.5559 36.9559 44.762 36.6747 44.9308C36.3753 45.1086 36.0536 45.2453 35.7182 45.3371C35.3425 45.442 34.9536 45.4913 34.5639 45.4836ZM37.2024 40.9605C37.175 40.609 37.0834 40.2657 36.932 39.948C36.7901 39.6506 36.5956 39.382 36.3581 39.1552C36.1254 38.938 35.8547 38.7664 35.5599 38.649C34.9389 38.4021 34.2483 38.4021 33.6272 38.649C33.3308 38.7662 33.0597 38.9404 32.829 39.1619C32.5965 39.3886 32.4086 39.6575 32.275 39.9546C32.1272 40.2705 32.0399 40.6118 32.0177 40.9605H37.2024Z" fill="#414042"/>
<path d="M39.3868 41.4664C39.3832 40.9405 39.4772 40.4186 39.6639 39.9276C39.8402 39.456 40.1095 39.0254 40.4554 38.662C40.8181 38.2805 41.2549 37.9788 41.7385 37.7759C42.222 37.573 42.7419 37.4732 43.2655 37.4829C43.9596 37.464 44.6451 37.6417 45.2444 37.9958C45.7752 38.3134 46.2071 38.775 46.4911 39.3281L45.2378 39.7278C45.0484 39.3722 44.7623 39.0787 44.4132 38.8818C44.0586 38.6751 43.6551 38.5692 43.2457 38.5753C42.9054 38.573 42.5687 38.6444 42.2581 38.7846C41.9474 38.9248 41.6701 39.1305 41.4449 39.3881C41.2108 39.6538 41.0275 39.9609 40.904 40.294C40.771 40.6587 40.704 41.0445 40.7061 41.4331C40.7053 41.8228 40.7769 42.2092 40.9171 42.5722C41.0413 42.9105 41.227 43.2223 41.4647 43.4915C41.6888 43.749 41.9627 43.9575 42.2694 44.1044C42.5775 44.2561 42.9162 44.3336 43.2589 44.3309C43.4824 44.3302 43.7046 44.2965 43.9185 44.2309C44.1297 44.1733 44.3318 44.0859 44.5188 43.9712C44.6919 43.8674 44.8515 43.742 44.9937 43.5981C45.1244 43.4671 45.2237 43.3076 45.2839 43.1318L46.5438 43.5181C46.4282 43.8051 46.2629 44.0691 46.0557 44.2976C45.8433 44.5384 45.5938 44.743 45.3169 44.9037C45.0199 45.0755 44.7031 45.2098 44.3736 45.3035C44.0172 45.4038 43.6487 45.4531 43.2787 45.45C42.7339 45.4571 42.194 45.3458 41.6955 45.1236C41.2348 44.9181 40.818 44.624 40.4686 44.2576C40.1244 43.8864 39.8536 43.4523 39.6705 42.9786C39.4843 42.4965 39.3881 41.9839 39.3868 41.4664Z" fill="#414042"/>
<path d="M54.6719 45.3368H53.3526V41.0202C53.3952 40.3972 53.2528 39.7756 52.9436 39.2349C52.8078 39.0443 52.6266 38.8913 52.4168 38.79C52.207 38.6887 51.9752 38.6424 51.743 38.6554C51.4808 38.6578 51.2212 38.7098 50.9779 38.8086C50.725 38.9158 50.4876 39.057 50.2721 39.2282C50.0448 39.4197 49.8469 39.6442 49.685 39.8944C49.5124 40.1421 49.3809 40.4166 49.2958 40.7071V45.3701H47.9766V34.5785H49.2958V39.3082C49.581 38.7602 50.0071 38.3 50.5293 37.9759C51.0403 37.663 51.6271 37.4993 52.2246 37.5029C52.6197 37.4917 53.0116 37.5786 53.3657 37.7561C53.6673 37.9088 53.9243 38.1385 54.1111 38.4222C54.3101 38.7352 54.4488 39.0832 54.5201 39.4481C54.6009 39.8695 54.6408 40.2978 54.6389 40.7271L54.6719 45.3368Z" fill="#414042"/>
<path d="M63.3125 45.3369H61.9932V41.0202C62.0387 40.3947 61.9083 39.769 61.6172 39.215C61.4926 39.0301 61.3224 38.8813 61.1234 38.7831C60.9245 38.685 60.7036 38.641 60.4826 38.6554C60.2118 38.6578 59.9436 38.7097 59.6911 38.8086C59.4264 38.9169 59.1761 39.0578 58.9457 39.2283C58.7103 39.419 58.5036 39.6434 58.3322 39.8944C58.1553 40.1405 58.0215 40.4154 57.9365 40.7071V45.3702H56.6172V37.6162H57.7848V39.2749C58.0934 38.7241 58.551 38.2736 59.104 37.9759C59.6725 37.6487 60.3164 37.4786 60.9708 37.483C61.3504 37.4716 61.7269 37.5563 62.0658 37.7294C62.3562 37.8832 62.6 38.1134 62.7716 38.3956C62.9566 38.7145 63.084 39.0641 63.1476 39.4281C63.2215 39.8503 63.2569 40.2784 63.2532 40.7071L63.3125 45.3369Z" fill="#414042"/>
<path d="M68.6883 45.4837C68.1668 45.4904 67.6497 45.3879 67.1694 45.1827C66.6892 44.9775 66.2562 44.674 65.898 44.2913C65.5592 43.9209 65.2929 43.4892 65.113 43.0189C64.9281 42.5321 64.8341 42.0149 64.836 41.4934C64.8357 40.9672 64.9319 40.4455 65.1196 39.9546C65.304 39.4851 65.5723 39.0538 65.9112 38.6823C66.2574 38.3165 66.6693 38.0203 67.125 37.8097C67.6188 37.5952 68.1507 37.4846 68.6883 37.4846C69.2258 37.4846 69.7578 37.5952 70.2516 37.8097C70.7133 38.0165 71.1301 38.313 71.4785 38.6823C72.1776 39.4474 72.562 40.4525 72.5537 41.4934C72.5556 42.0149 72.4616 42.5321 72.2766 43.0189C72.0973 43.491 71.8285 43.9232 71.4851 44.2913C71.1364 44.6554 70.7222 44.9493 70.2647 45.1573C69.7688 45.3801 69.231 45.4915 68.6883 45.4837ZM66.1552 41.4868C66.1516 41.8712 66.2187 42.2529 66.3532 42.6126C66.4752 42.9443 66.6588 43.2496 66.894 43.5119C67.1184 43.7674 67.3924 43.9737 67.6988 44.1181C68.0078 44.2671 68.3459 44.3445 68.6883 44.3445C69.0307 44.3445 69.3688 44.2671 69.6777 44.1181C69.9848 43.9686 70.2604 43.7605 70.4891 43.5052C70.7275 43.239 70.9133 42.9292 71.0365 42.5926C71.3004 41.8657 71.3004 41.0679 71.0365 40.341C70.9119 40.0031 70.7263 39.6914 70.4891 39.4217C70.258 39.169 69.983 38.9613 69.6777 38.8089C69.3681 38.6621 69.0303 38.586 68.6883 38.586C68.3463 38.586 68.0084 38.6621 67.6988 38.8089C67.3942 38.9651 67.1212 39.1775 66.894 39.4351C66.6599 39.7032 66.4766 40.0126 66.3532 40.3477C66.2166 40.7183 66.1495 41.1114 66.1552 41.5068V41.4868Z" fill="#414042"/>
<path d="M74.1641 34.5454H75.4833V43.3385C75.4691 43.5816 75.5496 43.8207 75.7076 44.0047C75.7925 44.0927 75.8958 44.1605 76.0099 44.2032C76.124 44.2458 76.246 44.2622 76.3672 44.2511C76.4944 44.2505 76.6209 44.2325 76.7433 44.1978C76.8822 44.1676 77.0189 44.1276 77.1522 44.0779L77.3567 45.1238C77.1122 45.2239 76.858 45.2976 76.5982 45.3436C76.3424 45.4004 76.0816 45.4316 75.8198 45.4369C75.6053 45.4482 75.3907 45.4157 75.1889 45.3413C74.9872 45.2669 74.8024 45.1521 74.6456 45.0039C74.4958 44.846 74.3799 44.6586 74.305 44.4535C74.2301 44.2483 74.1979 44.0297 74.2103 43.8115L74.1641 34.5454Z" fill="#414042"/>
<path d="M81.631 45.4835C81.0904 45.492 80.5544 45.3806 80.0611 45.1571C79.6033 44.9532 79.1906 44.6587 78.8473 44.2911C78.5059 43.9228 78.2393 43.4905 78.0624 43.0187C77.8774 42.5319 77.7834 42.0147 77.7853 41.4933C77.777 40.4523 78.1614 39.4472 78.8605 38.6822C79.2052 38.3145 79.6175 38.0182 80.0743 37.8095C80.5646 37.5911 81.0951 37.4798 81.631 37.4831C82.1529 37.4776 82.6702 37.5813 83.1504 37.7876C83.6306 37.994 84.0633 38.2986 84.4213 38.6822C85.1188 39.4487 85.505 40.4523 85.5031 41.4933C85.5027 42.0151 85.4065 42.5323 85.2194 43.0187C85.0401 43.4908 84.7712 43.9231 84.4279 44.2911C84.0822 44.6589 83.6673 44.9533 83.2076 45.1571C82.7119 45.3807 82.1738 45.4921 81.631 45.4835ZM79.098 41.4866C79.0943 41.871 79.1615 42.2527 79.2959 42.6124C79.4205 42.9429 79.6037 43.2477 79.8367 43.5117C80.0636 43.7674 80.3397 43.9736 80.6482 44.1179C80.9569 44.2679 81.295 44.3457 81.6376 44.3457C81.9802 44.3457 82.3184 44.2679 82.6271 44.1179C82.9365 43.9692 83.2144 43.761 83.445 43.5051C83.6811 43.2371 83.8667 42.9278 83.9925 42.5924C84.2563 41.8656 84.2563 41.0677 83.9925 40.3409C83.8652 40.0042 83.6798 39.6929 83.445 39.4216C83.2129 39.1672 82.9354 38.9593 82.6271 38.8087C82.3178 38.6606 81.9799 38.5837 81.6376 38.5837C81.2954 38.5837 80.9574 38.6606 80.6482 38.8087C80.3416 38.9649 80.0664 39.1772 79.8367 39.4349C79.6049 39.7048 79.4219 40.0137 79.2959 40.3475C79.1594 40.7182 79.0922 41.1112 79.098 41.5066V41.4866Z" fill="#414042"/>
<path d="M90.1385 45.4103C89.6451 45.413 89.1577 45.3013 88.7137 45.0839C88.2853 44.8727 87.9037 44.5758 87.5923 44.2113C87.2776 43.8389 87.0319 43.4124 86.8667 42.9522C86.6951 42.4785 86.608 41.9778 86.6094 41.4734C86.6068 40.9472 86.6938 40.4244 86.8667 39.9279C87.0288 39.4602 87.2747 39.0267 87.5923 38.6489C87.9023 38.2846 88.2843 37.9896 88.7137 37.7829C89.1624 37.5663 89.6544 37.4569 90.1517 37.4632C90.7424 37.4476 91.3241 37.6125 91.8206 37.9362C92.2901 38.2537 92.6935 38.6611 93.0079 39.1352V37.6164H94.1557V45.2504C94.1653 45.7544 94.0591 46.2537 93.8456 46.7093C93.6464 47.1181 93.3604 47.4775 93.0079 47.7618C92.6429 48.0617 92.2241 48.2879 91.7744 48.428C91.2823 48.5768 90.771 48.6509 90.2572 48.6478C89.5256 48.6798 88.7977 48.5264 88.1398 48.2015C87.6102 47.8926 87.1586 47.4639 86.8206 46.9491L87.566 46.283C87.8564 46.7258 88.2628 47.0787 88.74 47.3022C89.2253 47.5306 89.7549 47.6466 90.2903 47.6419C90.6299 47.6446 90.9679 47.5952 91.2928 47.4954C91.5935 47.4046 91.8736 47.2552 92.1174 47.0557C92.3576 46.8539 92.5513 46.6015 92.6847 46.3163C92.8313 45.9855 92.9033 45.6261 92.8958 45.2638V43.9315C92.7521 44.1759 92.5768 44.3999 92.3746 44.5976C92.176 44.7872 91.9544 44.9506 91.715 45.0839C91.4801 45.2216 91.2268 45.3248 90.963 45.3903C90.6901 45.4318 90.4131 45.4385 90.1385 45.4103ZM90.5343 44.3445C90.8047 44.3435 91.0727 44.2939 91.3258 44.1979C91.5766 44.0975 91.8137 43.9654 92.0316 43.8049C92.2393 43.6475 92.4217 43.4587 92.5726 43.2453C92.7103 43.0562 92.809 42.8409 92.8628 42.6125V40.4142C92.7597 40.1532 92.6197 39.9086 92.4472 39.6881C92.2788 39.4747 92.0837 39.2844 91.8667 39.1219C91.6678 38.9613 91.4452 38.8332 91.2071 38.7422C90.9633 38.6554 90.707 38.6104 90.4486 38.6089C90.0856 38.6034 89.7271 38.6905 89.4063 38.8621C89.0997 39.0238 88.8319 39.2511 88.6214 39.5282C88.4007 39.809 88.2309 40.127 88.12 40.4675C88.0081 40.807 87.9502 41.1622 87.9485 41.52C87.9448 42.2585 88.2155 42.9716 88.7071 43.5184C88.9427 43.7747 89.2248 43.9828 89.5383 44.1313C89.8494 44.2818 90.1894 44.3613 90.5343 44.3645V44.3445Z" fill="#414042"/>
<path d="M96.2344 36.1708V34.5454H97.5536V36.1708H96.2344ZM96.2344 45.337V37.6163H97.5536V45.337H96.2344Z" fill="#414042"/>
<path d="M103.009 45.4834C102.468 45.4923 101.93 45.3856 101.432 45.1703C100.967 44.9691 100.548 44.6744 100.199 44.3044C99.8547 43.9332 99.5839 43.4991 99.4008 43.0253C99.2131 42.5321 99.117 42.0082 99.1172 41.4799C99.1157 40.9535 99.2118 40.4316 99.4008 39.9411C99.584 39.4654 99.8592 39.0313 100.21 38.6642C100.561 38.2971 100.981 38.0042 101.446 37.8028C101.945 37.5846 102.485 37.4756 103.029 37.483C103.569 37.4776 104.104 37.5889 104.599 37.8094C105.055 38.0157 105.467 38.3098 105.812 38.6754C106.147 39.0404 106.407 39.4682 106.578 39.9344C106.756 40.409 106.848 40.9123 106.848 41.4199C106.848 41.5265 106.848 41.6264 106.848 41.713C106.848 41.7996 106.848 41.8729 106.848 41.9195H100.509C100.53 42.2834 100.617 42.6403 100.766 42.9721C100.91 43.2745 101.104 43.5494 101.34 43.7847C101.572 44.01 101.842 44.1906 102.138 44.3177C102.437 44.4455 102.757 44.5112 103.082 44.5109C103.305 44.5078 103.527 44.4742 103.741 44.4109C103.97 44.354 104.192 44.269 104.401 44.1578C104.592 44.0491 104.767 43.9146 104.922 43.7581C105.068 43.6038 105.185 43.4229 105.265 43.2252L106.38 43.5316C106.249 43.8202 106.073 44.0856 105.859 44.3177C105.633 44.5572 105.376 44.7635 105.093 44.9305C104.794 45.1084 104.472 45.2451 104.137 45.3369C103.77 45.4392 103.39 45.4886 103.009 45.4834ZM105.648 40.9603C105.62 40.6088 105.528 40.2655 105.377 39.9477C105.235 39.6504 105.041 39.3818 104.803 39.155C104.571 38.9378 104.3 38.7661 104.005 38.6487C103.7 38.5225 103.372 38.4591 103.042 38.4622C102.71 38.4591 102.38 38.5224 102.072 38.6487C101.776 38.766 101.505 38.9402 101.274 39.1617C101.042 39.3883 100.854 39.6573 100.72 39.9544C100.575 40.2714 100.488 40.6121 100.463 40.9603H105.648Z" fill="#414042"/>
<path d="M111.022 45.4835C110.406 45.4844 109.794 45.3878 109.208 45.197C108.645 45.0214 108.121 44.7387 107.664 44.3644L108.225 43.4917C108.627 43.809 109.071 44.069 109.544 44.2645C109.997 44.438 110.478 44.526 110.962 44.5242C111.425 44.547 111.884 44.4311 112.282 44.1911C112.439 44.0926 112.567 43.9538 112.654 43.7888C112.741 43.6238 112.783 43.4386 112.776 43.2519C112.78 43.0824 112.734 42.9155 112.644 42.7723C112.539 42.6288 112.404 42.5105 112.248 42.4259C112.039 42.3133 111.818 42.224 111.589 42.1594C111.312 42.0795 110.995 41.9929 110.632 41.9063C110.27 41.8197 109.781 41.6731 109.452 41.5665C109.16 41.4779 108.882 41.3479 108.627 41.1802C108.427 41.0506 108.265 40.8688 108.159 40.6539C108.055 40.4103 108.005 40.1464 108.014 39.8812C108.006 39.526 108.083 39.1741 108.238 38.8553C108.396 38.5556 108.622 38.2978 108.898 38.1026C109.174 37.8889 109.491 37.7326 109.828 37.643C110.201 37.534 110.587 37.4801 110.975 37.4831C111.525 37.4771 112.071 37.5743 112.585 37.7695C113.045 37.9345 113.472 38.1828 113.845 38.5023L113.258 39.2883C112.945 38.9957 112.577 38.7692 112.176 38.6222C111.782 38.4793 111.367 38.4072 110.949 38.409C110.531 38.3946 110.118 38.4984 109.755 38.7088C109.593 38.8085 109.461 38.9513 109.374 39.1217C109.286 39.2921 109.247 39.4834 109.26 39.6747C109.255 39.8296 109.289 39.9832 109.359 40.121C109.432 40.2519 109.54 40.3602 109.669 40.4341C109.849 40.5343 110.039 40.6125 110.237 40.6672C110.468 40.7405 110.738 40.8138 111.061 40.8871C111.569 41.007 112.011 41.1269 112.38 41.2535C112.711 41.3523 113.027 41.4981 113.317 41.6864C113.557 41.8315 113.754 42.0408 113.884 42.2911C114.014 42.5414 114.074 42.8231 114.056 43.1053C114.067 43.4372 113.998 43.7668 113.856 44.0661C113.713 44.3654 113.501 44.6254 113.238 44.824C112.593 45.2888 111.813 45.521 111.022 45.4835Z" fill="#414042"/>
<path d="M26.8522 28.7568V19.9636H25.2031V17.4323H26.8522V15.8335C26.7769 14.4694 27.1862 13.1229 28.0066 12.0365C28.3805 11.5782 28.8543 11.2134 29.391 10.9707C29.9277 10.728 30.5127 10.614 31.1003 10.6376C32.1878 10.6503 33.2586 10.9099 34.2335 11.397L33.5739 13.875C33.3016 13.7312 33.0139 13.6194 32.7164 13.542C32.4195 13.4599 32.1138 13.4152 31.8061 13.4088C30.6715 13.4088 30.1042 14.177 30.1042 15.7136V17.4323H33.2111V19.9569H30.1042V28.7568H26.8522Z" fill="#414042"/>
<path d="M42.8512 18.7644C41.9404 18.7621 41.0401 18.9599 40.2126 19.344C39.4728 19.6692 38.8767 20.2569 38.5371 20.996V28.7566H35.2852V15.94H38.2667V18.6845C38.669 17.8505 39.2558 17.1212 39.9818 16.5528C40.6127 16.0408 41.3954 15.757 42.2047 15.7468C42.3365 15.7383 42.4687 15.7383 42.6005 15.7468H42.8578L42.8512 18.7644Z" fill="#414042"/>
<path d="M44.6719 14.1545V10.8904H47.9238V14.1545H44.6719ZM44.6719 28.8098V15.9398H47.9238V28.7565L44.6719 28.8098Z" fill="#414042"/>
<path d="M56.7343 29.0297C55.7851 29.0444 54.8428 28.8654 53.9638 28.5034C53.1723 28.1736 52.4545 27.6866 51.853 27.0712C51.2799 26.4618 50.8316 25.7442 50.5337 24.9595C50.2162 24.1566 50.055 23.2994 50.0588 22.4348C50.0525 21.5518 50.2091 20.6753 50.5205 19.8502C50.8245 19.0447 51.2886 18.3106 51.8842 17.6931C52.4798 17.0756 53.1942 16.5877 53.9836 16.2596C54.8719 15.8889 55.8259 15.7053 56.787 15.7201C57.7397 15.7038 58.6853 15.8875 59.564 16.2596C60.3479 16.5952 61.0569 17.0868 61.6485 17.7052C62.2277 18.3097 62.6769 19.0287 62.9678 19.8169C63.2655 20.6154 63.4175 21.4617 63.4164 22.3149C63.4164 22.5281 63.4164 22.7346 63.4164 22.9278C63.4133 23.0937 63.3933 23.2589 63.3569 23.4207H53.4822C53.5187 23.884 53.6419 24.3361 53.8451 24.753C54.2111 25.5128 54.854 26.1 55.6393 26.3917C56.0261 26.5437 56.4379 26.6205 56.853 26.6182C57.4948 26.6196 58.1263 26.4545 58.6868 26.1386C59.2156 25.8703 59.6338 25.4221 59.8675 24.8729L62.6578 25.659C62.159 26.6703 61.3767 27.5112 60.4084 28.0771C59.2947 28.7321 58.0227 29.0618 56.7343 29.0297ZM60.0324 21.2824C59.9912 20.4027 59.6127 19.5737 58.977 18.9709C58.362 18.3926 57.5479 18.0795 56.7079 18.0982C56.2879 18.0963 55.8715 18.1755 55.4809 18.3313C55.1087 18.4887 54.7687 18.7145 54.4783 18.9975C54.1809 19.2866 53.9373 19.6273 53.7593 20.0034C53.5696 20.4116 53.4577 20.8523 53.4295 21.3024L60.0324 21.2824Z" fill="#414042"/>
<path d="M77.2289 28.7567H73.9307V21.5823C73.9932 20.7914 73.8061 20.0009 73.3964 19.324C73.2257 19.0933 73.002 18.9079 72.7446 18.7837C72.4873 18.6595 72.2038 18.6004 71.9188 18.6113C71.5773 18.6144 71.2395 18.6822 70.9227 18.8111C70.5748 18.9429 70.2498 19.1295 69.9597 19.364C69.6522 19.6072 69.3792 19.8918 69.1484 20.21C68.9074 20.5319 68.7263 20.8953 68.614 21.2825V28.7567H65.3555V15.94H68.2908V18.3182C68.7689 17.492 69.478 16.8269 70.3291 16.4063C71.2667 15.9438 72.3005 15.7153 73.3436 15.7402C74.0171 15.7123 74.686 15.8639 75.283 16.1798C75.7649 16.4548 76.1673 16.852 76.4505 17.3322C76.7323 17.834 76.9244 18.382 77.0178 18.951C77.1397 19.5477 77.2102 20.1539 77.2289 20.7629V28.7567Z" fill="#414042"/>
<path d="M85.2571 29.0296C84.4246 29.0416 83.5999 28.8664 82.8428 28.5167C82.1181 28.1801 81.4693 27.6972 80.9364 27.0978C80.3921 26.4739 79.9671 25.7534 79.6831 24.9728C79.38 24.1365 79.2282 23.2521 79.2346 22.3616C79.2282 21.4771 79.3732 20.5981 79.6633 19.7636C79.928 18.9972 80.3256 18.2844 80.8374 17.6586C81.3298 17.0615 81.9411 16.5758 82.6316 16.233C83.3439 15.889 84.1245 15.7135 84.914 15.7201C85.7968 15.7022 86.6669 15.9329 87.4272 16.3862C88.1569 16.8209 88.7634 17.438 89.1885 18.1781V10.8505H92.4405V24.9728C92.417 25.2332 92.4872 25.4933 92.6383 25.7056C92.8178 25.8718 93.0546 25.9603 93.298 25.9521V28.7565C92.7855 28.863 92.2644 28.921 91.7412 28.9297C91.2453 28.9476 90.757 28.8027 90.3494 28.5167C90.0246 28.2401 89.815 27.85 89.7623 27.4242L89.6898 26.5449C89.2493 27.3324 88.5915 27.9735 87.7966 28.3902C87.0151 28.8111 86.1428 29.0307 85.2571 29.0296ZM86.1079 26.2385C86.4287 26.2358 86.7471 26.1818 87.0512 26.0786C87.371 25.9737 87.6734 25.8211 87.9483 25.6256C88.2237 25.4337 88.476 25.2102 88.7003 24.9595C88.9242 24.7086 89.0988 24.417 89.2149 24.1002V21.0359C88.9436 20.32 88.4742 19.698 87.8626 19.244C87.3012 18.7882 86.604 18.5371 85.8837 18.5312C85.4256 18.5352 84.9744 18.6445 84.5644 18.8509C84.1556 19.0634 83.7959 19.3608 83.509 19.7236C83.2169 20.1029 82.9935 20.5314 82.8494 20.9893C82.6858 21.4601 82.6032 21.9558 82.6053 22.4548C82.5981 22.9674 82.69 23.4765 82.8758 23.9536C83.0432 24.3977 83.294 24.8049 83.6146 25.1527C83.9288 25.496 84.3078 25.7723 84.7293 25.9654C85.165 26.1523 85.6346 26.2453 86.1079 26.2385Z" fill="#414042"/>
<path d="M95.6992 10.8904H98.9974V24.5198C98.9974 25.519 99.4459 26.0186 100.317 26.0186C100.527 26.014 100.735 25.9803 100.937 25.9187C101.174 25.852 101.398 25.7788 101.596 25.6988L102.038 28.3234C101.551 28.5505 101.036 28.714 100.508 28.8098C99.989 28.9174 99.4612 28.9754 98.9314 28.983C98.0661 29.0347 97.2155 28.7403 96.5634 28.1636C96.2719 27.8517 96.047 27.4826 95.9029 27.0792C95.7587 26.6758 95.6984 26.2467 95.7256 25.8188L95.6992 10.8904Z" fill="#414042"/>
<path d="M102.957 31.2876C103.221 31.3629 103.49 31.4208 103.762 31.4608C103.981 31.4887 104.201 31.5043 104.421 31.5075C104.614 31.5099 104.805 31.4713 104.982 31.3942C105.169 31.3009 105.332 31.1639 105.457 30.9945C105.641 30.7373 105.796 30.4603 105.919 30.1685C106.108 29.7159 106.273 29.2533 106.413 28.7829L101.367 15.9396H104.718L108.188 25.9318L111.242 15.9396H114.303L108.94 31.3343C108.648 32.246 108.077 33.0411 107.311 33.6058C106.55 34.138 105.643 34.4152 104.718 34.3985C104.132 34.3963 103.55 34.3065 102.99 34.1321L102.957 31.2876Z" fill="#414042"/>
</svg>
